RobotoSerifText-HairlineCond.ufo
<glyph name="question" format="2">
  <advance width="421"/>
  <unicode hex="003F"/>
  <outline>
    <contour>
      <point x="176" y="345" type="line"/>
      <point x="263" y="385"/>
      <point x="330" y="432"/>
      <point x="330" y="559" type="curve" smooth="yes"/>
      <point x="330" y="661"/>
      <point x="281" y="711"/>
      <point x="208" y="711" type="curve" smooth="yes"/>
      <point x="142" y="711"/>
      <point x="102" y="676"/>
      <point x="80" y="638" type="curve"/>
      <point x="81" y="651"/>
      <point x="78" y="667"/>
      <point x="99" y="672" type="curve"/>
      <point x="99" y="585" type="line"/>
      <point x="55" y="585" type="line"/>
      <point x="55" y="667" type="line"/>
      <point x="80" y="695"/>
      <point x="131" y="740"/>
      <point x="208" y="740" type="curve" smooth="yes"/>
      <point x="306" y="740"/>
      <point x="370" y="671"/>
      <point x="370" y="559" type="curve" smooth="yes"/>
      <point x="370" y="424"/>
      <point x="284" y="360"/>
      <point x="208" y="325" type="curve"/>
      <point x="208" y="192" type="line"/>
      <point x="176" y="192" type="line"/>
    </contour>
    <component base="period" xOffset="110"/>
  </outline>
</glyph>
<glyph name="B" format="2">
  <advance width="507"/>
  <unicode hex="0042"/>
  <outline>
    <contour>
      <point x="272" y="710" type="curve" smooth="yes"/>
      <point x="37" y="710" type="line"/>
      <point x="37" y="681" type="line"/>
      <point x="45" y="681" type="line" smooth="yes"/>
      <point x="85" y="681"/>
      <point x="114" y="674"/>
      <point x="114" y="645" type="curve" smooth="yes"/>
      <point x="114" y="65" type="line" smooth="yes"/>
      <point x="114" y="36"/>
      <point x="85" y="29"/>
      <point x="45" y="29" type="curve" smooth="yes"/>
      <point x="37" y="29" type="line"/>
      <point x="37" y="0" type="line"/>
      <point x="280" y="0" type="line" smooth="yes"/>
      <point x="395" y="0"/>
      <point x="464" y="73"/>
      <point x="464" y="191" type="curve" smooth="yes"/>
      <point x="464" y="294"/>
      <point x="401" y="364"/>
      <point x="281" y="381" type="curve"/>
      <point x="304" y="365" type="line"/>
      <point x="304" y="383" type="line"/>
      <point x="280" y="367" type="line"/>
      <point x="384" y="386"/>
      <point x="439" y="450"/>
      <point x="439" y="539" type="curve" smooth="yes"/>
      <point x="439" y="643"/>
      <point x="376" y="710"/>
    </contour>
    <contour>
      <point x="143" y="386" type="line"/>
      <point x="143" y="358" type="line"/>
      <point x="264" y="358" type="line" smooth="yes"/>
      <point x="369" y="358"/>
      <point x="422" y="289"/>
      <point x="422" y="192" type="curve" smooth="yes"/>
      <point x="422" y="87"/>
      <point x="373" y="29"/>
      <point x="280" y="29" type="curve" smooth="yes"/>
      <point x="152" y="29" type="line"/>
      <point x="152" y="681" type="line"/>
      <point x="272" y="681" type="line" smooth="yes"/>
      <point x="356" y="681"/>
      <point x="399" y="629"/>
      <point x="399" y="538" type="curve" smooth="yes"/>
      <point x="399" y="449"/>
      <point x="353" y="386"/>
      <point x="258" y="386" type="curve" smooth="yes"/>
    </contour>
  </outline>
</glyph>
<glyph name="E" format="2">
  <advance width="485"/>
  <unicode hex="0045"/>
  <anchor x="298" y="741" name="top"/>
  <anchor x="359" y="0" name="right"/>
  <anchor x="298" y="0" name="bottom"/>
  <outline>
    <contour>
      <point x="441" y="187" type="line"/>
      <point x="416" y="187" type="line"/>
      <point x="409" y="72" type="line" smooth="yes"/>
      <point x="406" y="36"/>
      <point x="377" y="29"/>
      <point x="308" y="29" type="curve" smooth="yes"/>
      <point x="152" y="29" type="line"/>
      <point x="152" y="681" type="line"/>
      <point x="284" y="681" type="line" smooth="yes"/>
      <point x="354" y="681"/>
      <point x="381" y="674"/>
      <point x="385" y="638" type="curve" smooth="yes"/>
      <point x="393" y="548" type="line"/>
      <point x="417" y="548" type="line"/>
      <point x="417" y="710" type="line"/>
      <point x="37" y="710" type="line"/>
      <point x="37" y="681" type="line"/>
      <point x="45" y="681" type="line" smooth="yes"/>
      <point x="85" y="681"/>
      <point x="114" y="674"/>
      <point x="114" y="645" type="curve" smooth="yes"/>
      <point x="114" y="65" type="line" smooth="yes"/>
      <point x="114" y="36"/>
      <point x="85" y="29"/>
      <point x="45" y="29" type="curve" smooth="yes"/>
      <point x="37" y="29" type="line"/>
      <point x="37" y="0" type="line"/>
      <point x="441" y="0" type="line"/>
    </contour>
    <contour>
      <point x="135" y="377" type="curve"/>
      <point x="135" y="351" type="line"/>
      <point x="206" y="350"/>
      <point x="278" y="348"/>
      <point x="350" y="347" type="curve"/>
      <point x="350" y="381" type="line"/>
      <point x="278" y="380"/>
      <point x="206" y="378"/>
    </contour>
  </outline>
</glyph>
<glyph name="J" format="2">
  <advance width="429"/>
  <unicode hex="004A"/>
  <anchor x="307" y="741" name="top"/>
  <outline>
    <contour>
      <point x="193" y="710" type="line"/>
      <point x="193" y="681" type="line"/>
      <point x="210" y="681" type="line" smooth="yes"/>
      <point x="249" y="681"/>
      <point x="278" y="674"/>
      <point x="278" y="645" type="curve" smooth="yes"/>
      <point x="278" y="217" type="line" smooth="yes"/>
      <point x="278" y="69"/>
      <point x="231" y="19"/>
      <point x="161" y="19" type="curve" smooth="yes"/>
      <point x="102" y="19"/>
      <point x="72" y="55"/>
      <point x="52" y="89" type="curve"/>
      <point x="42" y="79"/>
      <point x="43" y="46"/>
      <point x="71" y="43" type="curve"/>
      <point x="71" y="134" type="line"/>
      <point x="27" y="134" type="line"/>
      <point x="27" y="57" type="line"/>
      <point x="51" y="24"/>
      <point x="96" y="-10"/>
      <point x="161" y="-10" type="curve" smooth="yes"/>
      <point x="252" y="-10"/>
      <point x="316" y="49"/>
      <point x="316" y="217" type="curve" smooth="yes"/>
      <point x="316" y="645" type="line" smooth="yes"/>
      <point x="316" y="674"/>
      <point x="345" y="681"/>
      <point x="384" y="681" type="curve" smooth="yes"/>
      <point x="393" y="681" type="line"/>
      <point x="393" y="710" type="line"/>
    </contour>
  </outline>
</glyph>
<glyph name="O" format="2">
  <advance width="608"/>
  <unicode hex="004F"/>
  <anchor x="304" y="741" name="top"/>
  <anchor x="304" y="0" name="bottom"/>
  <outline>
    <contour>
      <point x="303" y="-10" type="curve" smooth="yes"/>
      <point x="454" y="-10"/>
      <point x="570" y="139"/>
      <point x="570" y="355" type="curve" smooth="yes"/>
      <point x="570" y="572"/>
      <point x="454" y="720"/>
      <point x="303" y="720" type="curve" smooth="yes"/>
      <point x="153" y="720"/>
      <point x="38" y="572"/>
      <point x="38" y="355" type="curve" smooth="yes"/>
      <point x="38" y="139"/>
      <point x="153" y="-10"/>
    </contour>
    <contour>
      <point x="303" y="19" type="curve" smooth="yes"/>
      <point x="172" y="19"/>
      <point x="79" y="149"/>
      <point x="79" y="355" type="curve" smooth="yes"/>
      <point x="79" y="561"/>
      <point x="172" y="692"/>
      <point x="303" y="692" type="curve" smooth="yes"/>
      <point x="435" y="692"/>
      <point x="529" y="561"/>
      <point x="529" y="355" type="curve" smooth="yes"/>
      <point x="529" y="149"/>
      <point x="435" y="19"/>
    </contour>
  </outline>
</glyph>
<glyph name="S" format="2">
  <advance width="499"/>
  <unicode hex="0053"/>
  <anchor x="280" y="741" name="top"/>
  <anchor x="280" y="0" name="bottom"/>
  <outline>
    <contour>
      <point x="278" y="19" type="curve" smooth="yes"/>
      <point x="179" y="19"/>
      <point x="109" y="90"/>
      <point x="87" y="221" type="curve"/>
      <point x="53" y="221" type="line"/>
      <point x="53" y="0" type="line"/>
      <point x="78" y="0" type="line"/>
      <point x="87" y="170" type="line"/>
      <point x="70" y="190" type="line"/>
      <point x="97" y="61"/>
      <point x="168" y="-10"/>
      <point x="278" y="-10" type="curve" smooth="yes"/>
      <point x="375" y="-10"/>
      <point x="450" y="55"/>
      <point x="450" y="180" type="curve" smooth="yes"/>
      <point x="450" y="312"/>
      <point x="358" y="353"/>
      <point x="269" y="384" type="curve" smooth="yes"/>
      <point x="186" y="413"/>
      <point x="114" y="443"/>
      <point x="114" y="554" type="curve" smooth="yes"/>
      <point x="114" y="642"/>
      <point x="161" y="691"/>
      <point x="238" y="691" type="curve" smooth="yes"/>
      <point x="317" y="691"/>
      <point x="367" y="634"/>
      <point x="390" y="524" type="curve"/>
      <point x="419" y="524" type="line"/>
      <point x="419" y="710" type="line"/>
      <point x="395" y="710" type="line"/>
      <point x="386" y="565" type="line"/>
      <point x="404" y="553" type="line"/>
      <point x="381" y="660"/>
      <point x="324" y="720"/>
      <point x="237" y="720" type="curve" smooth="yes"/>
      <point x="144" y="720"/>
      <point x="77" y="657"/>
      <point x="77" y="551" type="curve" smooth="yes"/>
      <point x="77" y="422"/>
      <point x="167" y="383"/>
      <point x="254" y="352" type="curve" smooth="yes"/>
      <point x="337" y="323"/>
      <point x="413" y="294"/>
      <point x="413" y="175" type="curve" smooth="yes"/>
      <point x="413" y="67"/>
      <point x="358" y="19"/>
    </contour>
  </outline>
</glyph>
<glyph name="grave" format="2">
  <advance width="403"/>
  <unicode hex="0060"/>
  <anchor x="177" y="531" name="_top"/>
  <outline>
    <contour>
      <point x="163" y="707" type="curve" smooth="yes"/>
      <point x="207" y="590" type="line"/>
      <point x="207" y="577" type="line"/>
      <point x="194" y="577" type="line"/>
      <point x="126" y="684" type="line" smooth="yes"/>
      <point x="114" y="701"/>
      <point x="105" y="716"/>
      <point x="105" y="731" type="curve" smooth="yes"/>
      <point x="105" y="744"/>
      <point x="114" y="754"/>
      <point x="127" y="754" type="curve" smooth="yes"/>
      <point x="143" y="754"/>
      <point x="152" y="737"/>
    </contour>
  </outline>
</glyph>
<glyph name="c" format="2">
  <advance width="428"/>
  <unicode hex="0063"/>
  <anchor x="232" y="508" name="top"/>
  <anchor x="242" y="0" name="bottom"/>
  <outline>
    <contour>
      <point x="230" y="17" type="curve" smooth="yes"/>
      <point x="137" y="17"/>
      <point x="76" y="104"/>
      <point x="76" y="253" type="curve" smooth="yes"/>
      <point x="76" y="393"/>
      <point x="133" y="489"/>
      <point x="240" y="489" type="curve" smooth="yes"/>
      <point x="299" y="489"/>
      <point x="340" y="461"/>
      <point x="356" y="428" type="curve"/>
      <point x="372" y="420"/>
      <point x="358" y="452"/>
      <point x="336" y="463" type="curve"/>
      <point x="336" y="384" type="line"/>
      <point x="379" y="384" type="line"/>
      <point x="379" y="457" type="line"/>
      <point x="367" y="475"/>
      <point x="321" y="518"/>
      <point x="240" y="518" type="curve" smooth="yes"/>
      <point x="113" y="518"/>
      <point x="36" y="406"/>
      <point x="36" y="253" type="curve" smooth="yes"/>
      <point x="36" y="91"/>
      <point x="118" y="-12"/>
      <point x="230" y="-12" type="curve" smooth="yes"/>
      <point x="318" y="-12"/>
      <point x="365" y="51"/>
      <point x="395" y="126" type="curve"/>
      <point x="370" y="140" type="line"/>
      <point x="352" y="91"/>
      <point x="313" y="17"/>
    </contour>
  </outline>
</glyph>
<glyph name="d" format="2">
  <advance width="490"/>
  <unicode hex="0064"/>
  <anchor x="514" y="735" name="right"/>
  <anchor x="223" y="0" name="bottom"/>
  <outline>
    <contour>
      <point x="400" y="62" type="curve" smooth="yes"/>
      <point x="400" y="735" type="line"/>
      <point x="295" y="735" type="line"/>
      <point x="295" y="711" type="line"/>
      <point x="303" y="709" type="line" smooth="yes"/>
      <point x="343" y="699"/>
      <point x="363" y="693"/>
      <point x="363" y="664" type="curve" smooth="yes"/>
      <point x="363" y="134" type="line"/>
      <point x="364" y="134" type="line"/>
      <point x="364" y="0" type="line"/>
      <point x="468" y="0" type="line"/>
      <point x="468" y="26" type="line"/>
      <point x="467" y="26" type="line"/>
      <point x="429" y="26"/>
      <point x="400" y="33"/>
    </contour>
    <contour>
      <point x="217" y="518" type="curve" smooth="yes"/>
      <point x="110" y="518"/>
      <point x="36" y="408"/>
      <point x="36" y="250" type="curve" smooth="yes"/>
      <point x="36" y="93"/>
      <point x="103" y="-10"/>
      <point x="207" y="-10" type="curve" smooth="yes"/>
      <point x="279" y="-10"/>
      <point x="325" y="40"/>
      <point x="367" y="120" type="curve"/>
      <point x="367" y="169" type="line"/>
      <point x="326" y="79"/>
      <point x="278" y="19"/>
      <point x="212" y="19" type="curve" smooth="yes"/>
      <point x="122" y="19"/>
      <point x="76" y="107"/>
      <point x="76" y="250" type="curve" smooth="yes"/>
      <point x="76" y="393"/>
      <point x="127" y="489"/>
      <point x="220" y="489" type="curve" smooth="yes"/>
      <point x="286" y="489"/>
      <point x="334" y="426"/>
      <point x="367" y="333" type="curve"/>
      <point x="367" y="390" type="line"/>
      <point x="330" y="472"/>
      <point x="286" y="518"/>
    </contour>
  </outline>
</glyph>
<glyph name="v" format="2">
  <advance width="442"/>
  <unicode hex="0076"/>
  <outline>
    <contour>
      <point x="351" y="470" type="curve"/>
      <point x="222" y="24" type="line"/>
      <point x="230" y="21" type="line"/>
      <point x="98" y="470" type="line"/>
      <point x="98" y="477"/>
      <point x="135" y="479"/>
      <point x="169" y="479" type="curve" smooth="yes"/>
      <point x="171" y="479" type="line"/>
      <point x="171" y="508" type="line"/>
      <point x="8" y="508" type="line"/>
      <point x="8" y="479" type="line"/>
      <point x="9" y="479" type="line" smooth="yes"/>
      <point x="40" y="479"/>
      <point x="60" y="472"/>
      <point x="68" y="445" type="curve" smooth="yes"/>
      <point x="202" y="0" type="line"/>
      <point x="241" y="0" type="line"/>
      <point x="374" y="445" type="line" smooth="yes"/>
      <point x="383" y="472"/>
      <point x="404" y="479"/>
      <point x="433" y="479" type="curve" smooth="yes"/>
      <point x="435" y="479" type="line"/>
      <point x="435" y="508" type="line"/>
      <point x="279" y="508" type="line"/>
      <point x="279" y="479" type="line"/>
      <point x="281" y="479" type="line" smooth="yes"/>
      <point x="315" y="479"/>
      <point x="351" y="477"/>
    </contour>
  </outline>
</glyph>
<glyph name="w" format="2">
  <advance width="642"/>
  <unicode hex="0077"/>
  <anchor x="326" y="508" name="top"/>
  <outline>
    <contour>
      <point x="324" y="479" type="line"/>
      <point x="217" y="0" type="line"/>
      <point x="170" y="0" type="line"/>
      <point x="63" y="448" type="line" smooth="yes"/>
      <point x="56" y="473"/>
      <point x="33" y="479"/>
      <point x="8" y="479" type="curve"/>
      <point x="8" y="479" type="line"/>
      <point x="8" y="508" type="line"/>
      <point x="168" y="508" type="line"/>
      <point x="168" y="479" type="line"/>
      <point x="166" y="479" type="line" smooth="yes"/>
      <point x="129" y="479"/>
      <point x="95" y="477"/>
      <point x="95" y="470" type="curve"/>
      <point x="201" y="18" type="line"/>
      <point x="192" y="13" type="line"/>
      <point x="303" y="508" type="line"/>
      <point x="341" y="508" type="line"/>
      <point x="454" y="15" type="line"/>
      <point x="445" y="10" type="line"/>
      <point x="549" y="458" type="line"/>
      <point x="547" y="471"/>
      <point x="519" y="479"/>
      <point x="481" y="479" type="curve" smooth="yes"/>
      <point x="479" y="479" type="line"/>
      <point x="479" y="508" type="line"/>
      <point x="635" y="508" type="line"/>
      <point x="635" y="479" type="line"/>
      <point x="634" y="479" type="line"/>
      <point x="609" y="479"/>
      <point x="583" y="467"/>
      <point x="576" y="436" type="curve" smooth="yes"/>
      <point x="471" y="0" type="line"/>
      <point x="425" y="0" type="line"/>
      <point x="311" y="496" type="line"/>
    </contour>
  </outline>
</glyph>
<glyph name="sterling" format="2">
  <advance width="452"/>
  <unicode hex="00A3"/>
  <outline>
    <contour>
      <point x="30" y="3" type="line"/>
      <point x="131" y="27"/>
      <point x="189" y="92"/>
      <point x="189" y="212" type="curve" smooth="yes"/>
      <point x="189" y="323"/>
      <point x="121" y="411"/>
      <point x="121" y="528" type="curve" smooth="yes"/>
      <point x="121" y="633"/>
      <point x="175" y="690"/>
      <point x="252" y="690" type="curve" smooth="yes"/>
      <point x="310" y="690"/>
      <point x="343" y="659"/>
      <point x="366" y="633" type="curve"/>
      <point x="366" y="643"/>
      <point x="357" y="657"/>
      <point x="347" y="673" type="curve"/>
      <point x="347" y="573" type="line"/>
      <point x="390" y="573" type="line"/>
      <point x="390" y="661" type="line"/>
      <point x="367" y="684"/>
      <point x="323" y="718"/>
      <point x="252" y="718" type="curve" smooth="yes"/>
      <point x="151" y="718"/>
      <point x="80" y="643"/>
      <point x="80" y="529" type="curve" smooth="yes"/>
      <point x="80" y="402"/>
      <point x="155" y="303"/>
      <point x="155" y="213" type="curve" smooth="yes"/>
      <point x="155" y="101"/>
      <point x="111" y="53"/>
      <point x="30" y="31" type="curve"/>
    </contour>
    <contour>
      <point x="300" y="-2" type="curve" smooth="yes"/>
      <point x="369" y="-2"/>
      <point x="402" y="46"/>
      <point x="420" y="124" type="curve"/>
      <point x="395" y="137" type="line"/>
      <point x="377" y="71"/>
      <point x="358" y="36"/>
      <point x="306" y="36" type="curve" smooth="yes"/>
      <point x="257" y="36"/>
      <point x="215" y="75"/>
      <point x="166" y="154" type="curve"/>
      <point x="162" y="147"/>
      <point x="160" y="126"/>
      <point x="150" y="124" type="curve"/>
      <point x="208" y="47"/>
      <point x="241" y="-2"/>
    </contour>
    <contour>
      <point x="31" y="351" type="line"/>
      <point x="31" y="323" type="line"/>
      <point x="328" y="323" type="line"/>
      <point x="328" y="351" type="line"/>
    </contour>
  </outline>
</glyph>
<glyph name="yen" format="2">
  <advance width="452"/>
  <unicode hex="00A5"/>
  <outline>
    <contour>
      <point x="63" y="344" type="line"/>
      <point x="63" y="315" type="line"/>
      <point x="389" y="315" type="line"/>
      <point x="389" y="344" type="line"/>
    </contour>
    <contour>
      <point x="63" y="206" type="line"/>
      <point x="63" y="177" type="line"/>
      <point x="389" y="177" type="line"/>
      <point x="389" y="206" type="line"/>
    </contour>
    <contour>
      <point x="208" y="350" type="line"/>
      <point x="208" y="65" type="line" smooth="yes"/>
      <point x="208" y="36"/>
      <point x="179" y="29"/>
      <point x="139" y="29" type="curve" smooth="yes"/>
      <point x="126" y="29" type="line"/>
      <point x="126" y="0" type="line"/>
      <point x="327" y="0" type="line"/>
      <point x="327" y="29" type="line"/>
      <point x="314" y="29" type="line" smooth="yes"/>
      <point x="275" y="29"/>
      <point x="246" y="36"/>
      <point x="246" y="65" type="curve" smooth="yes"/>
      <point x="246" y="350" type="line"/>
    </contour>
    <contour>
      <point x="236" y="318" type="line"/>
      <point x="372" y="640" type="line" smooth="yes"/>
      <point x="389" y="677"/>
      <point x="413" y="681"/>
      <point x="440" y="681" type="curve" smooth="yes"/>
      <point x="444" y="681" type="line"/>
      <point x="444" y="710" type="line"/>
      <point x="272" y="710" type="line"/>
      <point x="272" y="681" type="line"/>
      <point x="284" y="681" type="line" smooth="yes"/>
      <point x="314" y="681"/>
      <point x="350" y="674"/>
      <point x="350" y="663" type="curve"/>
      <point x="215" y="337" type="line"/>
      <point x="241" y="347" type="line"/>
      <point x="106" y="671" type="line"/>
      <point x="106" y="678"/>
      <point x="143" y="681"/>
      <point x="172" y="681" type="curve" smooth="yes"/>
      <point x="185" y="681" type="line"/>
      <point x="185" y="710" type="line"/>
      <point x="8" y="710" type="line"/>
      <point x="8" y="681" type="line"/>
      <point x="12" y="681" type="line" smooth="yes"/>
      <point x="38" y="681"/>
      <point x="60" y="682"/>
      <point x="72" y="655" type="curve" smooth="yes"/>
      <point x="217" y="318" type="line"/>
    </contour>
  </outline>
</glyph>
<glyph name="idieresis" format="2">
  <advance width="229"/>
  <unicode hex="00EF"/>
  <outline>
    <contour>
      <point x="31" y="659" type="curve" smooth="yes"/>
      <point x="51" y="659"/>
      <point x="66" y="673"/>
      <point x="66" y="698" type="curve" smooth="yes"/>
      <point x="66" y="724"/>
      <point x="51" y="737"/>
      <point x="31" y="737" type="curve" smooth="yes"/>
      <point x="12" y="737"/>
      <point x="-3" y="724"/>
      <point x="-3" y="698" type="curve" smooth="yes"/>
      <point x="-3" y="673"/>
      <point x="12" y="659"/>
    </contour>
    <contour>
      <point x="190" y="659" type="curve" smooth="yes"/>
      <point x="209" y="659"/>
      <point x="224" y="673"/>
      <point x="224" y="698" type="curve" smooth="yes"/>
      <point x="224" y="724"/>
      <point x="209" y="737"/>
      <point x="190" y="737" type="curve" smooth="yes"/>
      <point x="170" y="737"/>
      <point x="155" y="724"/>
      <point x="155" y="698" type="curve" smooth="yes"/>
      <point x="155" y="673"/>
      <point x="170" y="659"/>
    </contour>
    <component base="dotlessi"/>
  </outline>
</glyph>
<glyph name="divide" format="2">
  <advance width="452"/>
  <unicode hex="00F7"/>
  <outline>
    <contour>
      <point x="262" y="509" type="curve" smooth="yes"/>
      <point x="262" y="535"/>
      <point x="247" y="550"/>
      <point x="226" y="550" type="curve" smooth="yes"/>
      <point x="205" y="550"/>
      <point x="190" y="535"/>
      <point x="190" y="509" type="curve" smooth="yes"/>
      <point x="190" y="484"/>
      <point x="205" y="468"/>
      <point x="226" y="468" type="curve" smooth="yes"/>
      <point x="247" y="468"/>
      <point x="262" y="484"/>
    </contour>
    <contour>
      <point x="262" y="175" type="curve" smooth="yes"/>
      <point x="262" y="201"/>
      <point x="247" y="216"/>
      <point x="226" y="216" type="curve" smooth="yes"/>
      <point x="205" y="216"/>
      <point x="190" y="201"/>
      <point x="190" y="175" type="curve" smooth="yes"/>
      <point x="190" y="149"/>
      <point x="205" y="134"/>
      <point x="226" y="134" type="curve" smooth="yes"/>
      <point x="247" y="134"/>
      <point x="262" y="149"/>
    </contour>
    <component base="minus"/>
  </outline>
</glyph>
<glyph name="Schwa" format="2">
  <advance width="550"/>
  <unicode hex="018F"/>
  <outline>
    <contour>
      <point x="266" y="720" type="curve" smooth="yes"/>
      <point x="161" y="720"/>
      <point x="87" y="657"/>
      <point x="40" y="563" type="curve"/>
      <point x="64" y="540" type="line"/>
      <point x="101" y="619"/>
      <point x="164" y="692"/>
      <point x="266" y="692" type="curve" smooth="yes"/>
      <point x="390" y="692"/>
      <point x="474" y="571"/>
      <point x="474" y="360" type="curve" smooth="yes"/>
      <point x="474" y="148"/>
      <point x="392" y="17"/>
      <point x="273" y="17" type="curve" smooth="yes"/>
      <point x="149" y="17"/>
      <point x="82" y="125"/>
      <point x="79" y="348" type="curve"/>
      <point x="60" y="338" type="line"/>
      <point x="495" y="338" type="line"/>
      <point x="494" y="367" type="line"/>
      <point x="38" y="367" type="line"/>
      <point x="39" y="120"/>
      <point x="122" y="-11"/>
      <point x="273" y="-11" type="curve" smooth="yes"/>
      <point x="413" y="-11"/>
      <point x="512" y="140"/>
      <point x="512" y="357" type="curve" smooth="yes"/>
      <point x="512" y="579"/>
      <point x="412" y="720"/>
    </contour>
  </outline>
</glyph>
<glyph name="uhorn" format="2">
  <advance width="487"/>
  <unicode hex="01B0"/>
  <anchor x="217" y="508" name="top"/>
  <outline>
    <contour>
      <point x="355" y="487" type="line"/>
      <point x="466" y="497"/>
      <point x="495" y="569"/>
      <point x="500" y="685" type="curve"/>
      <point x="464" y="685" type="line"/>
      <point x="458" y="545"/>
      <point x="430" y="508"/>
      <point x="295" y="508" type="curve" smooth="yes"/>
      <point x="271" y="508" type="line"/>
      <point x="271" y="482" type="line"/>
      <point x="275" y="482" type="line"/>
      <point x="320" y="482"/>
      <point x="346" y="476"/>
      <point x="346" y="447" type="curve" smooth="yes"/>
      <point x="346" y="107" type="line"/>
      <point x="347" y="117" type="line"/>
      <point x="347" y="0" type="line"/>
      <point x="453" y="0" type="line"/>
      <point x="453" y="26" type="line"/>
      <point x="450" y="26" type="line" smooth="yes"/>
      <point x="412" y="26"/>
      <point x="383" y="33"/>
      <point x="383" y="62" type="curve" smooth="yes"/>
      <point x="383" y="509" type="line"/>
    </contour>
    <contour>
      <point x="122" y="508" type="line"/>
      <point x="16" y="508" type="line"/>
      <point x="16" y="482" type="line"/>
      <point x="19" y="482" type="line" smooth="yes"/>
      <point x="58" y="483"/>
      <point x="84" y="476"/>
      <point x="84" y="447" type="curve" smooth="yes"/>
      <point x="84" y="151" type="line" smooth="yes"/>
      <point x="84" y="40"/>
      <point x="129" y="-10"/>
      <point x="203" y="-10" type="curve" smooth="yes"/>
      <point x="276" y="-10"/>
      <point x="324" y="40"/>
      <point x="375" y="141" type="curve"/>
      <point x="365" y="172" type="line"/>
      <point x="323" y="79"/>
      <point x="274" y="22"/>
      <point x="210" y="22" type="curve" smooth="yes"/>
      <point x="144" y="22"/>
      <point x="122" y="65"/>
      <point x="122" y="162" type="curve"/>
    </contour>
  </outline>
</glyph>
<glyph name="Oogonek" format="2">
  <advance width="608"/>
  <unicode hex="01EA"/>
  <outline>
    <contour>
      <point x="303" y="19" type="curve" smooth="yes"/>
      <point x="172" y="19"/>
      <point x="79" y="149"/>
      <point x="79" y="355" type="curve" smooth="yes"/>
      <point x="79" y="561"/>
      <point x="172" y="692"/>
      <point x="303" y="692" type="curve" smooth="yes"/>
      <point x="435" y="692"/>
      <point x="529" y="561"/>
      <point x="529" y="355" type="curve" smooth="yes"/>
      <point x="529" y="149"/>
      <point x="435" y="19"/>
    </contour>
    <contour>
      <point x="354" y="-233" type="curve" smooth="yes"/>
      <point x="389" y="-233"/>
      <point x="416" y="-211"/>
      <point x="437" y="-180" type="curve"/>
      <point x="421" y="-160" type="line"/>
      <point x="404" y="-184"/>
      <point x="386" y="-204"/>
      <point x="361" y="-204" type="curve" smooth="yes"/>
      <point x="335" y="-204"/>
      <point x="314" y="-182"/>
      <point x="314" y="-140" type="curve" smooth="yes"/>
      <point x="314" y="-69"/>
      <point x="369" y="-32"/>
      <point x="451" y="39" type="curve" smooth="yes"/>
      <point x="524" y="103"/>
      <point x="570" y="214"/>
      <point x="570" y="355" type="curve" smooth="yes"/>
      <point x="570" y="572"/>
      <point x="454" y="720"/>
      <point x="303" y="720" type="curve" smooth="yes"/>
      <point x="153" y="720"/>
      <point x="38" y="572"/>
      <point x="38" y="355" type="curve" smooth="yes"/>
      <point x="38" y="139"/>
      <point x="153" y="-10"/>
      <point x="303" y="-10" type="curve" smooth="yes"/>
      <point x="332" y="-10"/>
      <point x="360" y="-5"/>
      <point x="386" y="5" type="curve"/>
      <point x="393" y="21" type="line"/>
      <point x="329" y="-22"/>
      <point x="276" y="-69"/>
      <point x="276" y="-140" type="curve" smooth="yes"/>
      <point x="276" y="-198"/>
      <point x="311" y="-233"/>
    </contour>
  </outline>
</glyph>
<glyph name="mu" format="2">
  <advance width="461"/>
  <unicode hex="03BC"/>
  <outline>
    <contour>
      <point x="391" y="-10" type="curve" smooth="yes"/>
      <point x="431" y="-10"/>
      <point x="453" y="26"/>
      <point x="465" y="64" type="curve"/>
      <point x="447" y="79" type="line"/>
      <point x="435" y="49"/>
      <point x="421" y="19"/>
      <point x="394" y="19" type="curve" smooth="yes"/>
      <point x="375" y="19"/>
      <point x="361" y="30"/>
      <point x="361" y="66" type="curve" smooth="yes"/>
      <point x="361" y="508" type="line"/>
      <point x="324" y="508" type="line"/>
      <point x="324" y="108" type="line"/>
      <point x="325" y="69" type="line" smooth="yes"/>
      <point x="325" y="19"/>
      <point x="347" y="-10"/>
    </contour>
    <contour>
      <point x="74" y="103" type="line"/>
      <point x="87" y="18"/>
      <point x="126" y="-10"/>
      <point x="183" y="-10" type="curve" smooth="yes"/>
      <point x="252" y="-10"/>
      <point x="302" y="40"/>
      <point x="354" y="141" type="curve"/>
      <point x="343" y="172" type="line"/>
      <point x="300" y="79"/>
      <point x="252" y="22"/>
      <point x="189" y="22" type="curve" smooth="yes"/>
      <point x="123" y="22"/>
      <point x="100" y="65"/>
      <point x="100" y="161" type="curve" smooth="yes"/>
      <point x="100" y="508" type="line"/>
      <point x="62" y="508" type="line"/>
      <point x="62" y="-250" type="line"/>
      <point x="103" y="-250" type="line"/>
      <point x="103" y="-116"/>
      <point x="86" y="-36"/>
      <point x="80" y="146" type="curve"/>
    </contour>
  </outline>
</glyph>
<glyph name="emdash" format="2">
  <advance width="751"/>
  <unicode hex="2014"/>
  <outline>
    <contour>
      <point x="57" y="329" type="line"/>
      <point x="57" y="301" type="line"/>
      <point x="693" y="301" type="line"/>
      <point x="693" y="329" type="line"/>
    </contour>
  </outline>
</glyph>
<glyph name="won" format="2">
  <advance width="452"/>
  <unicode hex="20A9"/>
  <outline>
    <contour>
      <point x="-10" y="710" type="line"/>
      <point x="-10" y="681" type="line"/>
      <point x="-5" y="681" type="line" smooth="yes"/>
      <point x="17" y="681"/>
      <point x="33" y="678"/>
      <point x="37" y="644" type="curve" smooth="yes"/>
      <point x="104" y="0" type="line"/>
      <point x="147" y="0" type="line"/>
      <point x="231" y="685" type="line"/>
      <point x="224" y="689" type="line"/>
      <point x="313" y="0" type="line"/>
      <point x="359" y="0" type="line"/>
      <point x="415" y="638" type="line" smooth="yes"/>
      <point x="418" y="672"/>
      <point x="435" y="681"/>
      <point x="457" y="681" type="curve" smooth="yes"/>
      <point x="460" y="681" type="line"/>
      <point x="460" y="710" type="line"/>
      <point x="330" y="710" type="line"/>
      <point x="330" y="681" type="line"/>
      <point x="341" y="681" type="line" smooth="yes"/>
      <point x="364" y="681"/>
      <point x="391" y="674"/>
      <point x="391" y="663" type="curve"/>
      <point x="335" y="15" type="line"/>
      <point x="340" y="11" type="line"/>
      <point x="248" y="710" type="line"/>
      <point x="209" y="710" type="line"/>
      <point x="125" y="19" type="line"/>
      <point x="131" y="19" type="line"/>
      <point x="64" y="671" type="line"/>
      <point x="64" y="678"/>
      <point x="93" y="681"/>
      <point x="115" y="681" type="curve" smooth="yes"/>
      <point x="128" y="681" type="line"/>
      <point x="128" y="710" type="line"/>
    </contour>
    <contour>
      <point x="-10" y="437" type="line"/>
      <point x="-10" y="408" type="line"/>
      <point x="74" y="408" type="line"/>
      <point x="80" y="408" type="line"/>
      <point x="185" y="408" type="line"/>
      <point x="193" y="437" type="line"/>
    </contour>
    <contour>
      <point x="274" y="408" type="line"/>
      <point x="377" y="408" type="line"/>
      <point x="389" y="408" type="line"/>
      <point x="460" y="408" type="line"/>
      <point x="460" y="437" type="line"/>
      <point x="270" y="437" type="line"/>
    </contour>
    <contour>
      <point x="161" y="254" type="line"/>
      <point x="297" y="254" type="line"/>
      <point x="287" y="283" type="line"/>
      <point x="230" y="283" type="line"/>
      <point x="169" y="283" type="line"/>
    </contour>
    <contour>
      <point x="85" y="283" type="line"/>
      <point x="-10" y="283" type="line"/>
      <point x="-10" y="254" type="line"/>
      <point x="91" y="254" type="line"/>
    </contour>
    <contour>
      <point x="372" y="254" type="line"/>
      <point x="460" y="254" type="line"/>
      <point x="460" y="283" type="line"/>
      <point x="374" y="283" type="line"/>
    </contour>
  </outline>
</glyph>
<glyph name="guarani" format="2">
  <advance width="451"/>
  <unicode hex="20B2"/>
  <outline>
    <contour>
      <point x="212" y="790" type="line"/>
      <point x="212" y="686" type="line"/>
      <point x="212" y="682" type="line"/>
      <point x="212" y="28" type="line"/>
      <point x="212" y="23" type="line"/>
      <point x="212" y="-120" type="line"/>
      <point x="244" y="-120" type="line"/>
      <point x="244" y="20" type="line"/>
      <point x="244" y="26" type="line"/>
      <point x="244" y="680" type="line"/>
      <point x="244" y="687" type="line"/>
      <point x="244" y="790" type="line"/>
    </contour>
    <contour>
      <point x="239" y="10" type="curve"/>
      <point x="311" y="10"/>
      <point x="368" y="57"/>
      <point x="393" y="105" type="curve"/>
      <point x="393" y="288" type="line"/>
      <point x="393" y="317"/>
      <point x="412" y="324"/>
      <point x="437" y="324" type="curve" smooth="yes"/>
      <point x="440" y="324" type="line"/>
      <point x="440" y="353" type="line"/>
      <point x="302" y="353" type="line"/>
      <point x="302" y="324" type="line"/>
      <point x="310" y="324" type="line" smooth="yes"/>
      <point x="338" y="324"/>
      <point x="359" y="317"/>
      <point x="359" y="288" type="curve"/>
      <point x="359" y="112" type="line"/>
      <point x="344" y="85"/>
      <point x="309" y="39"/>
      <point x="240" y="39" type="curve"/>
      <point x="132" y="39"/>
      <point x="71" y="158"/>
      <point x="71" y="355" type="curve" smooth="yes"/>
      <point x="71" y="557"/>
      <point x="134" y="671"/>
      <point x="245" y="671" type="curve"/>
      <point x="314" y="671"/>
      <point x="350" y="628"/>
      <point x="368" y="599" type="curve"/>
      <point x="378" y="595"/>
      <point x="377" y="633"/>
      <point x="348" y="640" type="curve"/>
      <point x="348" y="539" type="line"/>
      <point x="393" y="539" type="line"/>
      <point x="393" y="629" type="line"/>
      <point x="369" y="656"/>
      <point x="320" y="700"/>
      <point x="244" y="700" type="curve"/>
      <point x="114" y="700"/>
      <point x="30" y="574"/>
      <point x="30" y="355" type="curve" smooth="yes"/>
      <point x="30" y="147"/>
      <point x="111" y="10"/>
    </contour>
  </outline>
</glyph>
<glyph name="radical" format="2">
  <advance width="476"/>
  <unicode hex="221A"/>
  <outline>
    <contour>
      <point x="46" y="329" type="line"/>
      <point x="146" y="329" type="line"/>
      <point x="117" y="349" type="line"/>
      <point x="226" y="0" type="line"/>
      <point x="253" y="0" type="line"/>
      <point x="258" y="26" type="line"/>
      <point x="153" y="357" type="line"/>
      <point x="46" y="357" type="line"/>
    </contour>
    <contour>
      <point x="421" y="710" type="line"/>
      <point x="235" y="0" type="line"/>
      <point x="264" y="0" type="line"/>
      <point x="453" y="710" type="line"/>
    </contour>
  </outline>
</glyph>
<glyph name="integral" format="2">
  <advance width="428"/>
  <unicode hex="222B"/>
  <outline>
    <contour>
      <point x="217" y="-69" type="curve" smooth="yes"/>
      <point x="234" y="570" type="line" smooth="yes"/>
      <point x="236" y="674"/>
      <point x="270" y="708"/>
      <point x="325" y="708" type="curve" smooth="yes"/>
      <point x="359" y="708"/>
      <point x="382" y="689"/>
      <point x="393" y="672" type="curve"/>
      <point x="401" y="680"/>
      <point x="390" y="708"/>
      <point x="368" y="707" type="curve"/>
      <point x="368" y="621" type="line"/>
      <point x="410" y="621" type="line"/>
      <point x="410" y="710" type="line"/>
      <point x="399" y="720"/>
      <point x="368" y="737"/>
      <point x="325" y="737" type="curve" smooth="yes"/>
      <point x="249" y="737"/>
      <point x="199" y="685"/>
      <point x="196" y="570" type="curve" smooth="yes"/>
      <point x="179" y="-69" type="line" smooth="yes"/>
      <point x="177" y="-173"/>
      <point x="143" y="-207"/>
      <point x="88" y="-207" type="curve" smooth="yes"/>
      <point x="54" y="-207"/>
      <point x="31" y="-188"/>
      <point x="19" y="-171" type="curve"/>
      <point x="12" y="-179"/>
      <point x="24" y="-207"/>
      <point x="45" y="-206" type="curve"/>
      <point x="45" y="-120" type="line"/>
      <point x="2" y="-120" type="line"/>
      <point x="2" y="-209" type="line"/>
      <point x="14" y="-219"/>
      <point x="46" y="-236"/>
      <point x="88" y="-236" type="curve" smooth="yes"/>
      <point x="163" y="-236"/>
      <point x="213" y="-184"/>
    </contour>
  </outline>
</glyph>
<glyph name="uni27F7" format="2">
  <advance width="1047"/>
  <unicode hex="27F7"/>
  <outline>
    <contour>
      <point x="819" y="324" type="line"/>
      <point x="747" y="192" type="line"/>
      <point x="755" y="179" type="line"/>
      <point x="1003" y="346" type="line"/>
      <point x="1003" y="360" type="line"/>
      <point x="755" y="527" type="line"/>
      <point x="747" y="514" type="line"/>
      <point x="819" y="382" type="line"/>
      <point x="229" y="382" type="line"/>
      <point x="301" y="514" type="line"/>
      <point x="293" y="527" type="line"/>
      <point x="45" y="360" type="line"/>
      <point x="45" y="346" type="line"/>
      <point x="293" y="179" type="line"/>
      <point x="301" y="192" type="line"/>
      <point x="229" y="324" type="line"/>
    </contour>
  </outline>
</glyph>
<glyph name="f_f_l" format="2">
  <advance width="773"/>
  <unicode hex="FB04"/>
  <outline>
    <contour>
      <point x="29" y="508" type="line"/>
      <point x="29" y="483" type="line"/>
      <point x="350" y="483" type="line"/>
      <point x="350" y="508" type="line"/>
    </contour>
    <contour>
      <point x="293" y="508" type="line"/>
      <point x="293" y="483" type="line"/>
      <point x="542" y="483" type="line"/>
      <point x="542" y="508" type="line"/>
    </contour>
    <contour>
      <point x="234" y="0" type="line"/>
      <point x="234" y="26" type="line"/>
      <point x="225" y="26" type="line" smooth="yes"/>
      <point x="182" y="26"/>
      <point x="150" y="29"/>
      <point x="150" y="36" type="curve" smooth="yes"/>
      <point x="150" y="578" type="line" smooth="yes"/>
      <point x="150" y="677"/>
      <point x="181" y="711"/>
      <point x="231" y="711" type="curve" smooth="yes"/>
      <point x="256" y="711"/>
      <point x="277" y="702"/>
      <point x="294" y="694" type="curve"/>
      <point x="294" y="727" type="line"/>
      <point x="280" y="733"/>
      <point x="256" y="737"/>
      <point x="232" y="737" type="curve" smooth="yes"/>
      <point x="164" y="737"/>
      <point x="112" y="690"/>
      <point x="112" y="578" type="curve" smooth="yes"/>
      <point x="112" y="62" type="line" smooth="yes"/>
      <point x="112" y="33"/>
      <point x="86" y="26"/>
      <point x="42" y="26" type="curve" smooth="yes"/>
      <point x="33" y="26" type="line"/>
      <point x="33" y="0" type="line"/>
    </contour>
    <contour>
      <point x="501" y="0" type="line"/>
      <point x="501" y="26" type="line"/>
      <point x="490" y="26" type="line" smooth="yes"/>
      <point x="447" y="26"/>
      <point x="415" y="29"/>
      <point x="415" y="36" type="curve" smooth="yes"/>
      <point x="415" y="597" type="line" smooth="yes"/>
      <point x="415" y="696"/>
      <point x="454" y="723"/>
      <point x="528" y="723" type="curve" smooth="yes"/>
      <point x="576" y="723"/>
      <point x="622" y="708"/>
      <point x="660" y="676" type="curve"/>
      <point x="665" y="712" type="line"/>
      <point x="635" y="727"/>
      <point x="590" y="752"/>
      <point x="528" y="752" type="curve" smooth="yes"/>
      <point x="437" y="752"/>
      <point x="377" y="709"/>
      <point x="377" y="597" type="curve"/>
      <point x="377" y="36" type="line" smooth="yes"/>
      <point x="377" y="29"/>
      <point x="345" y="26"/>
      <point x="302" y="26" type="curve" smooth="yes"/>
      <point x="297" y="26" type="line"/>
      <point x="297" y="0" type="line"/>
    </contour>
    <contour>
      <point x="747" y="0" type="line"/>
      <point x="747" y="26" type="line"/>
      <point x="746" y="26" type="line" smooth="yes"/>
      <point x="707" y="26"/>
      <point x="680" y="33"/>
      <point x="680" y="62" type="curve" smooth="yes"/>
      <point x="680" y="735" type="line"/>
      <point x="598" y="735" type="line"/>
      <point x="642" y="703" type="line"/>
      <point x="642" y="36" type="line" smooth="yes"/>
      <point x="642" y="29"/>
      <point x="606" y="26"/>
      <point x="583" y="26" type="curve" smooth="yes"/>
      <point x="574" y="26" type="line"/>
      <point x="574" y="0" type="line"/>
    </contour>
  </outline>
</glyph>
<glyph name="acute.pl" format="2">
  <advance width="403"/>
  <anchor x="171" y="489" name="_top"/>
  <outline>
    <contour>
      <point x="170" y="705" type="curve" smooth="yes"/>
      <point x="161" y="593" type="line"/>
      <point x="161" y="577" type="line"/>
      <point x="176" y="577" type="line"/>
      <point x="210" y="685" type="line" smooth="yes"/>
      <point x="216" y="701"/>
      <point x="220" y="715"/>
      <point x="220" y="728" type="curve" smooth="yes"/>
      <point x="220" y="745"/>
      <point x="211" y="754"/>
      <point x="198" y="754" type="curve" smooth="yes"/>
      <point x="179" y="754"/>
      <point x="172" y="736"/>
    </contour>
  </outline>
</glyph>
<glyph name="blackdownpointingtriangle" format="2">
  <advance width="520"/>
  <outline>
    <contour>
      <point x="45" y="464" type="line"/>
      <point x="259" y="91" type="line"/>
      <point x="476" y="464" type="line"/>
    </contour>
  </outline>
</glyph>
<glyph name="circumflex_grave" format="2">
  <advance width="411"/>
  <anchor x="195" y="564" name="_top"/>
  <outline>
    <contour>
      <point x="311" y="824" type="curve" smooth="yes"/>
      <point x="354" y="707" type="line"/>
      <point x="354" y="693" type="line"/>
      <point x="341" y="693" type="line"/>
      <point x="274" y="801" type="line" smooth="yes"/>
      <point x="262" y="818"/>
      <point x="253" y="833"/>
      <point x="253" y="848" type="curve" smooth="yes"/>
      <point x="253" y="861"/>
      <point x="261" y="871"/>
      <point x="275" y="871" type="curve" smooth="yes"/>
      <point x="291" y="871"/>
      <point x="300" y="854"/>
    </contour>
    <component base="circumflex"/>
  </outline>
</glyph>
<glyph name="eight.oldtab" format="2">
  <advance width="452"/>
  <outline>
    <contour>
      <point x="226" y="19" type="curve"/>
      <point x="144" y="19"/>
      <point x="81" y="87"/>
      <point x="81" y="197" type="curve" smooth="yes"/>
      <point x="81" y="300"/>
      <point x="144" y="362"/>
      <point x="226" y="362" type="curve"/>
      <point x="308" y="362"/>
      <point x="371" y="300"/>
      <point x="371" y="197" type="curve" smooth="yes"/>
      <point x="371" y="87"/>
      <point x="308" y="19"/>
    </contour>
    <contour>
      <point x="226" y="390" type="curve"/>
      <point x="161" y="390"/>
      <point x="107" y="447"/>
      <point x="107" y="538" type="curve" smooth="yes"/>
      <point x="107" y="632"/>
      <point x="157" y="692"/>
      <point x="226" y="692" type="curve"/>
      <point x="294" y="692"/>
      <point x="344" y="632"/>
      <point x="344" y="538" type="curve" smooth="yes"/>
      <point x="344" y="447"/>
      <point x="290" y="390"/>
    </contour>
    <contour>
      <point x="226" y="720" type="curve"/>
      <point x="142" y="720"/>
      <point x="69" y="648"/>
      <point x="69" y="543" type="curve" smooth="yes"/>
      <point x="69" y="451"/>
      <point x="121" y="389"/>
      <point x="188" y="373" type="curve"/>
      <point x="169" y="392" type="line"/>
      <point x="169" y="363" type="line"/>
      <point x="188" y="383" type="line"/>
      <point x="106" y="367"/>
      <point x="40" y="297"/>
      <point x="40" y="192" type="curve" smooth="yes"/>
      <point x="40" y="72"/>
      <point x="124" y="-10"/>
      <point x="226" y="-10" type="curve"/>
      <point x="328" y="-10"/>
      <point x="412" y="72"/>
      <point x="412" y="192" type="curve" smooth="yes"/>
      <point x="412" y="297"/>
      <point x="345" y="367"/>
      <point x="263" y="383" type="curve"/>
      <point x="283" y="363" type="line"/>
      <point x="283" y="392" type="line"/>
      <point x="263" y="373" type="line"/>
      <point x="331" y="389"/>
      <point x="383" y="451"/>
      <point x="383" y="543" type="curve" smooth="yes"/>
      <point x="383" y="648"/>
      <point x="310" y="720"/>
    </contour>
  </outline>
</glyph>
<glyph name="f_f_k.alt" format="2">
  <advance width="1021"/>
  <outline>
    <contour>
      <point x="999" y="0" type="line"/>
      <point x="999" y="29" type="line"/>
      <point x="998" y="29" type="line"/>
      <point x="970" y="29"/>
      <point x="946" y="36"/>
      <point x="921" y="67" type="curve" smooth="yes"/>
      <point x="745" y="290" type="line"/>
      <point x="745" y="273" type="line"/>
      <point x="885" y="430" type="line" smooth="yes"/>
      <point x="915" y="463"/>
      <point x="942" y="479"/>
      <point x="976" y="479" type="curve"/>
      <point x="978" y="479" type="line"/>
      <point x="978" y="508" type="line"/>
      <point x="799" y="508" type="line"/>
      <point x="799" y="479" type="line"/>
      <point x="803" y="479" type="line"/>
      <point x="829" y="479"/>
      <point x="870" y="476"/>
      <point x="870" y="461" type="curve"/>
      <point x="710" y="281" type="line"/>
      <point x="710" y="276" type="line"/>
      <point x="894" y="39" type="line"/>
      <point x="894" y="32"/>
      <point x="859" y="29"/>
      <point x="834" y="29" type="curve"/>
      <point x="829" y="29" type="line"/>
      <point x="829" y="0" type="line"/>
    </contour>
    <contour>
      <point x="29" y="508" type="line"/>
      <point x="29" y="483" type="line"/>
      <point x="350" y="483" type="line"/>
      <point x="350" y="508" type="line"/>
    </contour>
    <contour>
      <point x="293" y="508" type="line"/>
      <point x="293" y="483" type="line"/>
      <point x="542" y="483" type="line"/>
      <point x="542" y="508" type="line"/>
    </contour>
    <contour>
      <point x="574" y="0" type="line"/>
      <point x="740" y="0" type="line"/>
      <point x="740" y="29" type="line"/>
      <point x="738" y="29" type="line" smooth="yes"/>
      <point x="716" y="29"/>
      <point x="680" y="32"/>
      <point x="680" y="39" type="curve"/>
      <point x="680" y="735" type="line"/>
      <point x="597" y="735" type="line"/>
      <point x="642" y="704" type="line"/>
      <point x="642" y="36" type="line"/>
      <point x="642" y="29"/>
      <point x="606" y="26"/>
      <point x="583" y="26" type="curve" smooth="yes"/>
      <point x="574" y="26" type="line"/>
    </contour>
    <contour>
      <point x="415" y="36" type="curve"/>
      <point x="415" y="597" type="line" smooth="yes"/>
      <point x="415" y="696"/>
      <point x="454" y="723"/>
      <point x="528" y="723" type="curve" smooth="yes"/>
      <point x="576" y="723"/>
      <point x="622" y="708"/>
      <point x="660" y="676" type="curve"/>
      <point x="665" y="712" type="line"/>
      <point x="635" y="727"/>
      <point x="590" y="752"/>
      <point x="528" y="752" type="curve" smooth="yes"/>
      <point x="437" y="752"/>
      <point x="377" y="709"/>
      <point x="377" y="597" type="curve"/>
      <point x="377" y="36" type="line"/>
      <point x="377" y="29"/>
      <point x="345" y="26"/>
      <point x="302" y="26" type="curve" smooth="yes"/>
      <point x="297" y="26" type="line"/>
      <point x="297" y="0" type="line"/>
      <point x="501" y="0" type="line"/>
      <point x="501" y="26" type="line"/>
      <point x="490" y="26" type="line" smooth="yes"/>
      <point x="447" y="26"/>
      <point x="415" y="29"/>
    </contour>
    <contour>
      <point x="33" y="0" type="line"/>
      <point x="234" y="0" type="line"/>
      <point x="234" y="26" type="line"/>
      <point x="225" y="26" type="line" smooth="yes"/>
      <point x="182" y="26"/>
      <point x="150" y="29"/>
      <point x="150" y="36" type="curve" smooth="yes"/>
      <point x="150" y="559" type="line" smooth="yes"/>
      <point x="150" y="673"/>
      <point x="205" y="703"/>
      <point x="279" y="703" type="curve" smooth="yes"/>
      <point x="332" y="703"/>
      <point x="374" y="686"/>
      <point x="401" y="639" type="curve"/>
      <point x="407" y="681"/>
      <point x="394" y="679"/>
      <point x="377" y="693" type="curve"/>
      <point x="377" y="570" type="line"/>
      <point x="413" y="620" type="line"/>
      <point x="413" y="681" type="line"/>
      <point x="392" y="707"/>
      <point x="347" y="732"/>
      <point x="279" y="732" type="curve" smooth="yes"/>
      <point x="182" y="732"/>
      <point x="112" y="688"/>
      <point x="112" y="559" type="curve" smooth="yes"/>
      <point x="112" y="62" type="line"/>
      <point x="112" y="33"/>
      <point x="86" y="26"/>
      <point x="42" y="26" type="curve" smooth="yes"/>
      <point x="33" y="26" type="line"/>
    </contour>
  </outline>
</glyph>
<glyph name="f_f_l.alt" format="2">
  <advance width="773"/>
  <outline>
    <contour>
      <point x="29" y="508" type="line"/>
      <point x="29" y="483" type="line"/>
      <point x="350" y="483" type="line"/>
      <point x="350" y="508" type="line"/>
    </contour>
    <contour>
      <point x="293" y="508" type="line"/>
      <point x="293" y="483" type="line"/>
      <point x="542" y="483" type="line"/>
      <point x="542" y="508" type="line"/>
    </contour>
    <contour>
      <point x="501" y="0" type="line"/>
      <point x="501" y="26" type="line"/>
      <point x="490" y="26" type="line" smooth="yes"/>
      <point x="447" y="26"/>
      <point x="415" y="29"/>
      <point x="415" y="36" type="curve" smooth="yes"/>
      <point x="415" y="597" type="line" smooth="yes"/>
      <point x="415" y="696"/>
      <point x="454" y="723"/>
      <point x="528" y="723" type="curve" smooth="yes"/>
      <point x="576" y="723"/>
      <point x="622" y="708"/>
      <point x="660" y="676" type="curve"/>
      <point x="665" y="712" type="line"/>
      <point x="635" y="727"/>
      <point x="590" y="752"/>
      <point x="528" y="752" type="curve" smooth="yes"/>
      <point x="437" y="752"/>
      <point x="377" y="709"/>
      <point x="377" y="597" type="curve"/>
      <point x="377" y="36" type="line" smooth="yes"/>
      <point x="377" y="29"/>
      <point x="345" y="26"/>
      <point x="302" y="26" type="curve" smooth="yes"/>
      <point x="297" y="26" type="line"/>
      <point x="297" y="0" type="line"/>
    </contour>
    <contour>
      <point x="747" y="0" type="line"/>
      <point x="747" y="26" type="line"/>
      <point x="746" y="26" type="line" smooth="yes"/>
      <point x="707" y="26"/>
      <point x="680" y="33"/>
      <point x="680" y="62" type="curve" smooth="yes"/>
      <point x="680" y="735" type="line"/>
      <point x="598" y="735" type="line"/>
      <point x="642" y="703" type="line"/>
      <point x="642" y="36" type="line" smooth="yes"/>
      <point x="642" y="29"/>
      <point x="606" y="26"/>
      <point x="583" y="26" type="curve" smooth="yes"/>
      <point x="574" y="26" type="line"/>
      <point x="574" y="0" type="line"/>
    </contour>
    <contour>
      <point x="33" y="0" type="line"/>
      <point x="234" y="0" type="line"/>
      <point x="234" y="26" type="line"/>
      <point x="225" y="26" type="line" smooth="yes"/>
      <point x="182" y="26"/>
      <point x="150" y="29"/>
      <point x="150" y="36" type="curve" smooth="yes"/>
      <point x="150" y="559" type="line" smooth="yes"/>
      <point x="150" y="673"/>
      <point x="205" y="703"/>
      <point x="279" y="703" type="curve" smooth="yes"/>
      <point x="332" y="703"/>
      <point x="374" y="686"/>
      <point x="401" y="639" type="curve"/>
      <point x="407" y="681"/>
      <point x="394" y="679"/>
      <point x="377" y="693" type="curve"/>
      <point x="377" y="570" type="line"/>
      <point x="413" y="620" type="line"/>
      <point x="413" y="681" type="line"/>
      <point x="392" y="707"/>
      <point x="347" y="732"/>
      <point x="279" y="732" type="curve" smooth="yes"/>
      <point x="182" y="732"/>
      <point x="112" y="688"/>
      <point x="112" y="559" type="curve" smooth="yes"/>
      <point x="112" y="62" type="line"/>
      <point x="112" y="33"/>
      <point x="86" y="26"/>
      <point x="42" y="26" type="curve" smooth="yes"/>
      <point x="33" y="26" type="line"/>
    </contour>
  </outline>
</glyph>
<glyph name="f_h" format="2">
  <advance width="770"/>
  <outline>
    <contour>
      <point x="29" y="508" type="line"/>
      <point x="29" y="483" type="line"/>
      <point x="278" y="483" type="line"/>
      <point x="278" y="508" type="line"/>
    </contour>
    <contour>
      <point x="582" y="0" type="line"/>
      <point x="747" y="0" type="line"/>
      <point x="747" y="26" type="line"/>
      <point x="746" y="26" type="line" smooth="yes"/>
      <point x="707" y="26"/>
      <point x="680" y="33"/>
      <point x="680" y="62" type="curve" smooth="yes"/>
      <point x="680" y="357" type="line" smooth="yes"/>
      <point x="680" y="468"/>
      <point x="635" y="518"/>
      <point x="559" y="518" type="curve" smooth="yes"/>
      <point x="487" y="518"/>
      <point x="437" y="468"/>
      <point x="385" y="367" type="curve"/>
      <point x="395" y="336" type="line"/>
      <point x="439" y="429"/>
      <point x="488" y="487"/>
      <point x="553" y="487" type="curve" smooth="yes"/>
      <point x="619" y="487"/>
      <point x="643" y="443"/>
      <point x="643" y="346" type="curve" smooth="yes"/>
      <point x="643" y="36" type="line" smooth="yes"/>
      <point x="643" y="29"/>
      <point x="606" y="26"/>
      <point x="583" y="26" type="curve" smooth="yes"/>
      <point x="582" y="26" type="line"/>
    </contour>
    <contour>
      <point x="309" y="0" type="line"/>
      <point x="475" y="0" type="line"/>
      <point x="475" y="26" type="line"/>
      <point x="473" y="26" type="line" smooth="yes"/>
      <point x="450" y="26"/>
      <point x="415" y="29"/>
      <point x="415" y="36" type="curve"/>
      <point x="415" y="735" type="line"/>
      <point x="331" y="735" type="line"/>
      <point x="377" y="703" type="line"/>
      <point x="377" y="36" type="line"/>
      <point x="377" y="29"/>
      <point x="341" y="26"/>
      <point x="318" y="26" type="curve" smooth="yes"/>
      <point x="309" y="26" type="line"/>
    </contour>
    <contour>
      <point x="33" y="0" type="line"/>
      <point x="236" y="0" type="line"/>
      <point x="236" y="26" type="line"/>
      <point x="226" y="26" type="line" smooth="yes"/>
      <point x="183" y="26"/>
      <point x="150" y="29"/>
      <point x="150" y="36" type="curve"/>
      <point x="150" y="597" type="line" smooth="yes"/>
      <point x="150" y="696"/>
      <point x="189" y="723"/>
      <point x="263" y="723" type="curve" smooth="yes"/>
      <point x="311" y="723"/>
      <point x="357" y="708"/>
      <point x="395" y="676" type="curve"/>
      <point x="400" y="712" type="line"/>
      <point x="370" y="727"/>
      <point x="326" y="752"/>
      <point x="263" y="752" type="curve" smooth="yes"/>
      <point x="172" y="752"/>
      <point x="112" y="709"/>
      <point x="112" y="597" type="curve" smooth="yes"/>
      <point x="112" y="62" type="line" smooth="yes"/>
      <point x="112" y="33"/>
      <point x="86" y="26"/>
      <point x="42" y="26" type="curve" smooth="yes"/>
      <point x="33" y="26" type="line"/>
    </contour>
  </outline>
</glyph>
<glyph name="g.alt" format="2">
  <advance width="463"/>
  <outline>
    <contour>
      <point x="363" y="42" type="line"/>
      <point x="363" y="-123"/>
      <point x="307" y="-193"/>
      <point x="214" y="-193" type="curve" smooth="yes"/>
      <point x="146" y="-193"/>
      <point x="97" y="-163"/>
      <point x="69" y="-108" type="curve"/>
      <point x="69" y="-158"/>
      <point x="82" y="-157"/>
      <point x="92" y="-157" type="curve"/>
      <point x="92" y="-70" type="line"/>
      <point x="48" y="-70" type="line"/>
      <point x="48" y="-140" type="line"/>
      <point x="73" y="-185"/>
      <point x="143" y="-222"/>
      <point x="214" y="-222" type="curve" smooth="yes"/>
      <point x="329" y="-222"/>
      <point x="400" y="-128"/>
      <point x="400" y="43" type="curve"/>
      <point x="400" y="511" type="line"/>
      <point x="375" y="511" type="line"/>
      <point x="367" y="371" type="line"/>
      <point x="363" y="353" type="line"/>
    </contour>
    <contour>
      <point x="76" y="250" type="curve" smooth="yes"/>
      <point x="76" y="393"/>
      <point x="128" y="489"/>
      <point x="221" y="489" type="curve" smooth="yes"/>
      <point x="291" y="489"/>
      <point x="338" y="423"/>
      <point x="370" y="326" type="curve"/>
      <point x="388" y="347" type="line"/>
      <point x="348" y="456"/>
      <point x="303" y="518"/>
      <point x="219" y="518" type="curve" smooth="yes"/>
      <point x="110" y="518"/>
      <point x="36" y="408"/>
      <point x="36" y="250" type="curve" smooth="yes"/>
      <point x="36" y="93"/>
      <point x="103" y="-11"/>
      <point x="207" y="-11" type="curve" smooth="yes"/>
      <point x="294" y="-11"/>
      <point x="342" y="60"/>
      <point x="394" y="169" type="curve"/>
      <point x="378" y="196" type="line"/>
      <point x="335" y="92"/>
      <point x="283" y="18"/>
      <point x="212" y="18" type="curve" smooth="yes"/>
      <point x="122" y="18"/>
      <point x="76" y="107"/>
    </contour>
  </outline>
</glyph>
<glyph name="kip.proportional" format="2">
  <advance width="529"/>
  <outline>
    <contour>
      <point x="37" y="385" type="line"/>
      <point x="37" y="357" type="line"/>
      <point x="445" y="357" type="line"/>
      <point x="445" y="385" type="line"/>
    </contour>
    <contour>
      <point x="37" y="0" type="line"/>
      <point x="229" y="0" type="line"/>
      <point x="229" y="29" type="line"/>
      <point x="222" y="29" type="line" smooth="yes"/>
      <point x="191" y="29"/>
      <point x="152" y="32"/>
      <point x="152" y="39" type="curve" smooth="yes"/>
      <point x="152" y="671" type="line" smooth="yes"/>
      <point x="152" y="678"/>
      <point x="191" y="681"/>
      <point x="222" y="681" type="curve" smooth="yes"/>
      <point x="229" y="681" type="line"/>
      <point x="229" y="710" type="line"/>
      <point x="37" y="710" type="line"/>
      <point x="37" y="681" type="line"/>
      <point x="45" y="681" type="line" smooth="yes"/>
      <point x="85" y="681"/>
      <point x="114" y="674"/>
      <point x="114" y="645" type="curve" smooth="yes"/>
      <point x="114" y="65" type="line" smooth="yes"/>
      <point x="114" y="36"/>
      <point x="85" y="29"/>
      <point x="45" y="29" type="curve" smooth="yes"/>
      <point x="37" y="29" type="line"/>
    </contour>
    <contour>
      <point x="334" y="0" type="line"/>
      <point x="519" y="0" type="line"/>
      <point x="519" y="29" type="line"/>
      <point x="510" y="29" type="line" smooth="yes"/>
      <point x="473" y="29"/>
      <point x="458" y="32"/>
      <point x="438" y="62" type="curve" smooth="yes"/>
      <point x="229" y="381" type="line"/>
      <point x="224" y="358" type="line"/>
      <point x="429" y="652" type="line" smooth="yes"/>
      <point x="446" y="675"/>
      <point x="464" y="681"/>
      <point x="493" y="681" type="curve" smooth="yes"/>
      <point x="506" y="681" type="line"/>
      <point x="506" y="710" type="line"/>
      <point x="335" y="710" type="line"/>
      <point x="335" y="681" type="line"/>
      <point x="342" y="681" type="line" smooth="yes"/>
      <point x="371" y="681"/>
      <point x="404" y="678"/>
      <point x="405" y="671" type="curve"/>
      <point x="193" y="367" type="line"/>
      <point x="201" y="363" type="line"/>
      <point x="408" y="39" type="line"/>
      <point x="408" y="32"/>
      <point x="370" y="29"/>
      <point x="341" y="29" type="curve" smooth="yes"/>
      <point x="334" y="29" type="line"/>
    </contour>
  </outline>
</glyph>
<glyph name="one.lintab" format="2">
  <advance width="452"/>
  <outline>
    <contour>
      <point x="270" y="62" type="curve" smooth="yes"/>
      <point x="270" y="710" type="line"/>
      <point x="246" y="710" type="line"/>
      <point x="218" y="658"/>
      <point x="161" y="636"/>
      <point x="90" y="634" type="curve"/>
      <point x="90" y="606" type="line"/>
      <point x="156" y="604"/>
      <point x="223" y="629"/>
      <point x="238" y="675" type="curve"/>
      <point x="232" y="675" type="line"/>
      <point x="232" y="62" type="line" smooth="yes"/>
      <point x="232" y="33"/>
      <point x="199" y="26"/>
      <point x="147" y="26" type="curve" smooth="yes"/>
      <point x="99" y="26" type="line"/>
      <point x="99" y="0" type="line"/>
      <point x="398" y="0" type="line"/>
      <point x="398" y="26" type="line"/>
      <point x="363" y="26" type="line" smooth="yes"/>
      <point x="305" y="26"/>
      <point x="270" y="33"/>
    </contour>
  </outline>
</glyph>
<glyph name="six.oldtab" format="2">
  <advance width="452"/>
  <outline>
    <contour>
      <point x="358" y="712" type="line"/>
      <point x="196" y="675"/>
      <point x="79" y="503"/>
      <point x="79" y="286" type="curve" smooth="yes"/>
      <point x="79" y="111"/>
      <point x="144" y="19"/>
      <point x="235" y="19" type="curve" smooth="yes"/>
      <point x="324" y="19"/>
      <point x="377" y="116"/>
      <point x="377" y="234" type="curve" smooth="yes"/>
      <point x="377" y="347"/>
      <point x="330" y="431"/>
      <point x="244" y="431" type="curve" smooth="yes"/>
      <point x="167" y="431"/>
      <point x="104" y="357"/>
      <point x="67" y="268" type="curve"/>
      <point x="59" y="290" type="line"/>
      <point x="90" y="377"/>
      <point x="161" y="459"/>
      <point x="248" y="459" type="curve" smooth="yes"/>
      <point x="351" y="459"/>
      <point x="417" y="366"/>
      <point x="417" y="234" type="curve" smooth="yes"/>
      <point x="417" y="103"/>
      <point x="341" y="-10"/>
      <point x="235" y="-10" type="curve" smooth="yes"/>
      <point x="124" y="-10"/>
      <point x="39" y="103"/>
      <point x="39" y="287" type="curve" smooth="yes"/>
      <point x="39" y="503"/>
      <point x="166" y="704"/>
      <point x="354" y="740" type="curve"/>
    </contour>
  </outline>
</glyph>
<glyph name="sterling.alt" format="2">
  <advance width="452"/>
  <outline>
    <contour>
      <point x="32" y="0" type="line"/>
      <point x="410" y="0" type="line"/>
      <point x="410" y="166" type="line"/>
      <point x="384" y="166" type="line"/>
      <point x="377" y="71" type="line" smooth="yes"/>
      <point x="375" y="35"/>
      <point x="346" y="28"/>
      <point x="277" y="28" type="curve"/>
      <point x="55" y="28" type="line"/>
      <point x="69" y="24" type="line"/>
      <point x="141" y="65"/>
      <point x="180" y="134"/>
      <point x="180" y="219" type="curve" smooth="yes"/>
      <point x="180" y="329"/>
      <point x="114" y="411"/>
      <point x="114" y="528" type="curve" smooth="yes"/>
      <point x="114" y="633"/>
      <point x="169" y="690"/>
      <point x="246" y="690" type="curve" smooth="yes"/>
      <point x="305" y="690"/>
      <point x="339" y="659"/>
      <point x="361" y="633" type="curve"/>
      <point x="361" y="643"/>
      <point x="353" y="657"/>
      <point x="342" y="673" type="curve"/>
      <point x="342" y="573" type="line"/>
      <point x="385" y="573" type="line"/>
      <point x="385" y="661" type="line"/>
      <point x="363" y="684"/>
      <point x="319" y="718"/>
      <point x="246" y="718" type="curve" smooth="yes"/>
      <point x="146" y="718"/>
      <point x="74" y="643"/>
      <point x="74" y="528" type="curve" smooth="yes"/>
      <point x="74" y="402"/>
      <point x="147" y="310"/>
      <point x="147" y="220" type="curve" smooth="yes"/>
      <point x="147" y="121"/>
      <point x="98" y="75"/>
      <point x="32" y="33" type="curve"/>
    </contour>
    <contour>
      <point x="25" y="351" type="line"/>
      <point x="25" y="322" type="line"/>
      <point x="321" y="322" type="line"/>
      <point x="321" y="351" type="line"/>
    </contour>
  </outline>
</glyph>
<glyph name="whiterightpointingtriangle" format="2">
  <advance width="462"/>
  <outline>
    <contour>
      <point x="105" y="545" type="line"/>
      <point x="105" y="10" type="line"/>
      <point x="406" y="277" type="line"/>
    </contour>
    <contour>
      <point x="150" y="460" type="line"/>
      <point x="136" y="453" type="line"/>
      <point x="342" y="272" type="line"/>
      <point x="342" y="283" type="line"/>
      <point x="136" y="102" type="line"/>
      <point x="150" y="95" type="line"/>
    </contour>
  </outline>
</glyph>
<glyph name="zero.slashold" format="2">
  <advance width="452"/>
  <outline>
    <contour>
      <point x="226" y="18" type="curve" smooth="yes"/>
      <point x="129" y="18"/>
      <point x="72" y="117"/>
      <point x="72" y="274" type="curve" smooth="yes"/>
      <point x="72" y="429"/>
      <point x="129" y="529"/>
      <point x="226" y="529" type="curve" smooth="yes"/>
      <point x="324" y="529"/>
      <point x="380" y="429"/>
      <point x="380" y="274" type="curve" smooth="yes"/>
      <point x="380" y="116"/>
      <point x="324" y="18"/>
    </contour>
    <contour>
      <point x="91" y="99" type="line"/>
      <point x="376" y="423" type="line"/>
      <point x="364" y="448" type="line"/>
      <point x="78" y="121" type="line"/>
    </contour>
    <contour>
      <point x="226" y="-11" type="curve" smooth="yes"/>
      <point x="340" y="-11"/>
      <point x="420" y="105"/>
      <point x="420" y="274" type="curve" smooth="yes"/>
      <point x="420" y="442"/>
      <point x="340" y="558"/>
      <point x="226" y="558" type="curve" smooth="yes"/>
      <point x="112" y="558"/>
      <point x="31" y="442"/>
      <point x="31" y="274" type="curve" smooth="yes"/>
      <point x="31" y="105"/>
      <point x="112" y="-11"/>
    </contour>
  </outline>
</glyph>
